<svg width="62" height="63" viewBox="0 0 62 63" fill="none" xmlns="http://www.w3.org/2000/svg">
<path d="M30.9555 62.0351C48.0518 62.0351 61.911 48.1481 61.911 31.0176C61.911 13.887 48.0518 0 30.9555 0C13.8593 0 0 13.887 0 31.0176C0 48.1481 13.8593 62.0351 30.9555 62.0351Z" fill="#4E0EA1"/>
<path d="M8.21555 18.5939L10.8626 20.4904L10.3963 21.1501L4.91016 17.2196L5.37648 16.56L7.55722 18.1267L7.17319 15.8316L8.31156 14.21L8.9699 14.691L8.02354 16.0652L8.22927 17.2196L8.54472 16.7936C9.00175 16.1594 9.6892 15.7305 10.4589 15.5994C11.2285 15.4683 12.0188 15.6455 12.6593 16.0927L13.5234 16.7112L13.0571 17.3708L12.1793 16.7524C11.9461 16.5852 11.6824 16.4657 11.4031 16.4008C11.1238 16.3358 10.8345 16.3267 10.5516 16.374C10.2688 16.4212 9.9981 16.5238 9.75493 16.676C9.51176 16.8282 9.30092 17.0269 9.13448 17.2609L8.21555 18.5939Z" fill="#C8C7FF"/>
<path d="M16.335 10.376C16.718 10.8326 16.9571 11.3929 17.0218 11.9858C17.0864 12.5787 16.9738 13.1775 16.6983 13.7062C16.4227 14.2349 15.9965 14.6696 15.4739 14.9551C14.9513 15.2407 14.3559 15.3642 13.7631 15.31C13.1703 15.2559 12.6069 15.0264 12.1445 14.6508C11.6821 14.2753 11.3415 13.7705 11.1659 13.2006C10.9903 12.6307 10.9877 12.0213 11.1583 11.4499C11.329 10.8785 11.6652 10.3708 12.1244 9.99124C12.7366 9.48977 13.5207 9.24914 14.3082 9.3211C15.0956 9.39306 15.8234 9.77187 16.335 10.376ZM15.7041 10.8983C15.3204 10.4899 14.7954 10.2438 14.2366 10.2105C13.6778 10.1772 13.1274 10.3592 12.6981 10.7191C12.2687 11.0791 11.9929 11.5898 11.9271 12.1468C11.8612 12.7039 12.0103 13.265 12.3438 13.7155C12.7275 14.124 13.2525 14.37 13.8113 14.4033C14.3701 14.4366 14.9205 14.2546 15.3499 13.8947C15.7792 13.5347 16.055 13.024 16.1208 12.467C16.1867 11.9099 16.0376 11.3488 15.7041 10.8983Z" fill="#C8C7FF"/>
<path d="M15.251 6.665L15.9642 6.29395L17.7472 9.63345C18.0211 10.1463 18.4855 10.5305 19.0399 10.7028C19.5944 10.8751 20.1942 10.8217 20.7097 10.5542L21.0937 11.2688C20.7427 11.4624 20.3566 11.5837 19.9581 11.6255C19.5596 11.6673 19.1568 11.6288 18.7734 11.5123C18.39 11.3958 18.0337 11.2036 17.7256 10.947C17.4174 10.6904 17.1636 10.3746 16.9791 10.0183L15.251 6.665Z" fill="#C8C7FF"/>
<path d="M19.0508 4.71333L19.8188 4.43848L21.0944 7.99787C21.282 8.54048 21.674 8.98804 22.1865 9.24485C22.6991 9.50166 23.2917 9.54735 23.8374 9.37215L24.1117 10.1418C23.3658 10.3832 22.5552 10.3228 21.8531 9.97363C21.151 9.62442 20.6129 9.01401 20.3537 8.27273L19.0508 4.71333Z" fill="#C8C7FF"/>
<path d="M26.759 8.63039C27.0477 8.64896 27.3372 8.60979 27.6106 8.51516C27.8841 8.42053 28.136 8.27234 28.3517 8.07921C28.5674 7.88608 28.7426 7.65187 28.8671 7.39023C28.9916 7.12859 29.0629 6.84474 29.0769 6.55522L29.8861 6.43153C29.8912 7.01029 29.7297 7.57825 29.4208 8.06735C29.112 8.55645 28.6689 8.94595 28.1448 9.18917C27.6206 9.43238 27.0376 9.51901 26.4656 9.43865C25.8935 9.3583 25.3568 9.11438 24.9196 8.73612C24.4824 8.35786 24.1633 7.86131 24.0006 7.30597C23.8378 6.75062 23.8384 6.16004 24.0021 5.605C24.1658 5.04996 24.4858 4.55399 24.9237 4.17653C25.3616 3.79907 25.8988 3.55613 26.471 3.47682C27.0697 3.39032 27.6805 3.48865 28.222 3.75872C28.7635 4.02879 29.21 4.45778 29.5021 4.98854L26.759 8.63039ZM25.9224 8.4105L28.5832 4.97479C28.3383 4.71413 28.0356 4.51486 27.6997 4.3931C27.3637 4.27135 27.0039 4.23051 26.6493 4.27391C26.188 4.33958 25.7599 4.55153 25.4276 4.87871C25.0953 5.2059 24.8763 5.63111 24.8027 6.09206C24.7291 6.55301 24.8048 7.02547 25.0186 7.4402C25.2324 7.85494 25.5732 8.19017 25.991 8.39676L25.9224 8.4105Z" fill="#C8C7FF"/>
<path d="M35.9337 8.53383L35.824 9.5508L35.0148 9.4546L35.1245 8.43763C35.161 8.1488 35.1402 7.85561 35.0634 7.57484C34.9866 7.29407 34.8552 7.03125 34.6768 6.80144C34.4984 6.57164 34.2766 6.37937 34.0239 6.23565C33.7712 6.09193 33.4927 5.99959 33.2043 5.96392L31.5174 5.77152L31.147 8.98734L30.3516 8.89114L31.1196 2.1709L31.9288 2.2671L31.6134 5.01566L32.7929 5.15309C33.2683 5.18848 33.7418 5.06273 34.1373 4.79604C34.5327 4.52936 34.8273 4.13722 34.9736 3.68261L35.7965 3.77881C35.587 4.52608 35.095 5.16206 34.425 5.55164C34.9413 5.84494 35.3598 6.28431 35.6282 6.81476C35.8965 7.3452 36.0028 7.94317 35.9337 8.53383Z" fill="#C8C7FF"/>
<path d="M38.4165 3.21582L39.1709 3.51816L38.1834 5.88193L42.9975 7.77844L42.7094 8.5343L37.9365 6.65153L37.7856 7.02258C37.5988 7.52948 37.6048 8.08755 37.8025 8.5903C38.0001 9.09305 38.3756 9.50527 38.8573 9.74828C39.339 9.99129 39.8931 10.0481 40.4138 9.90782C40.9346 9.76755 41.3856 9.44005 41.6808 8.98781L42.4489 9.29015C42.2814 9.6511 42.0445 9.97545 41.7519 10.2447C41.4593 10.5139 41.1167 10.7228 40.7435 10.8593C40.3703 10.9959 39.974 11.0574 39.5771 11.0405C39.1802 11.0236 38.7905 10.9285 38.4303 10.7606C38.07 10.5928 37.7463 10.3555 37.4776 10.0623C37.2089 9.76912 37.0005 9.42577 36.8642 9.05186C36.7279 8.67795 36.6665 8.2808 36.6834 7.8831C36.7003 7.4854 36.7952 7.09493 36.9627 6.73398L38.4165 3.21582Z" fill="#C8C7FF"/>
<path d="M45.0416 7.99813L42.4768 12.3409L41.7773 11.9286L44.3421 7.58585L45.0416 7.99813ZM45.0416 7.21479C44.9185 7.13794 44.8297 7.01639 44.794 6.87553C44.7582 6.73468 44.7781 6.58542 44.8496 6.45893C44.8863 6.39649 44.935 6.34195 44.9929 6.29845C45.0508 6.25495 45.1167 6.22335 45.1868 6.20546C45.2569 6.18758 45.3299 6.18377 45.4014 6.19425C45.473 6.20473 45.5418 6.2293 45.6039 6.26653C45.6661 6.30353 45.7203 6.35243 45.7636 6.41044C45.8069 6.46844 45.8383 6.53443 45.8562 6.60462C45.874 6.6748 45.8778 6.74782 45.8675 6.8195C45.8572 6.89119 45.8329 6.96013 45.7959 7.02239C45.759 7.08465 45.7102 7.13902 45.6523 7.18239C45.5944 7.22575 45.5286 7.25727 45.4585 7.27513C45.3885 7.293 45.3156 7.29687 45.2441 7.28651C45.1725 7.27616 45.1037 7.25179 45.0416 7.21479Z" fill="#C8C7FF"/>
<path d="M44.7532 11.4612C44.7532 11.4612 45.4801 10.0869 46.5636 7.81934L47.2083 8.36905C45.8367 11.1176 45.4801 11.8597 45.4801 11.8597C45.2992 12.1536 45.2175 12.4981 45.2472 12.8421C45.2768 13.1862 45.4162 13.5115 45.6447 13.77C46.0699 14.1136 46.6048 14.306 47.5511 13.6051C47.5511 13.6051 48.5112 12.9179 50.6645 11.2688L51.3091 11.8185L48.0586 14.2098C46.6185 15.268 45.7544 14.8832 45.1235 14.3609C44.7327 13.9975 44.4816 13.5082 44.4139 12.9783C44.3463 12.4484 44.4663 11.9115 44.7532 11.4612Z" fill="#C8C7FF"/>
<path d="M51.0352 21.2597L50.5278 20.5863L51.2547 20.0916C50.8485 20.0302 50.4596 19.8849 50.1125 19.6649C49.7654 19.4448 49.4678 19.1549 49.2385 18.8135C48.8934 18.3244 48.7018 17.7432 48.6883 17.1444C48.6747 16.5456 48.8398 15.9563 49.1623 15.452C49.4849 14.9477 49.9503 14.5514 50.499 14.3136C51.0477 14.0759 51.6547 14.0076 52.2423 14.1175C52.83 14.2274 53.3715 14.5105 53.7976 14.9306C54.2238 15.3507 54.5151 15.8886 54.6344 16.4755C54.7537 17.0625 54.6955 17.6717 54.4672 18.2253C54.239 18.7789 53.851 19.2517 53.3531 19.5831L51.0352 21.2597ZM53.0102 18.9097C53.446 18.5633 53.7343 18.064 53.8167 17.5128C53.8992 16.9615 53.7696 16.3995 53.4542 15.9404C53.1389 15.4812 52.6612 15.1592 52.118 15.0394C51.5747 14.9197 51.0063 15.0112 50.5278 15.2953C50.2691 15.4489 50.0446 15.6542 49.8684 15.8983C49.6922 16.1425 49.5679 16.4203 49.5033 16.7146C49.4387 17.0088 49.4351 17.3133 49.4929 17.609C49.5506 17.9047 49.6683 18.1853 49.8388 18.4335C50.0093 18.6817 50.2288 18.8922 50.4839 19.0518C50.7389 19.2115 51.024 19.3169 51.3213 19.3615C51.6187 19.4062 51.9221 19.3891 52.2126 19.3114C52.5032 19.2336 52.7746 19.0969 53.0102 18.9097Z" fill="#C8C7FF"/>
<path d="M53.2703 44.7056L50.5272 42.7954L51.0073 42.1357L56.4934 46.0662L56.0134 46.7258L53.8464 45.1729L54.2304 47.468L53.092 49.0484L52.4611 48.5674L53.3937 47.1931L53.2703 46.1074L52.9549 46.5472C52.4934 47.1756 51.8065 47.5999 51.0389 47.7307C50.2713 47.8614 49.483 47.6884 48.8403 47.2481L47.7842 46.6159L48.2642 45.9562L49.1283 46.5884C49.6025 46.9232 50.1892 47.0576 50.7616 46.9625C51.3339 46.8673 51.8459 46.5503 52.1868 46.0799L53.2703 44.7056Z" fill="#C8C7FF"/>
<path d="M45.0407 52.9095C44.6595 52.4524 44.4222 51.8923 44.3589 51.3001C44.2956 50.7079 44.409 50.1101 44.6849 49.5825C44.9608 49.055 45.3867 48.6213 45.9087 48.3364C46.4308 48.0515 47.0254 47.9282 47.6174 47.9821C48.2094 48.036 48.7721 48.2647 49.2343 48.6393C49.6965 49.0138 50.0374 49.5174 50.2138 50.0862C50.3902 50.655 50.3942 51.2634 50.2253 51.8345C50.0564 52.4056 49.7222 52.9136 49.265 53.2943C48.652 53.8 47.8648 54.0432 47.074 53.9711C46.2832 53.8991 45.5527 53.5176 45.0407 52.9095ZM45.6579 52.401C45.9361 52.7352 46.307 52.9793 46.7236 53.1022C47.1403 53.2251 47.584 53.2213 47.9985 53.0914C48.413 52.9614 48.7798 52.7111 49.0522 52.3722C49.3247 52.0333 49.4907 51.621 49.5292 51.1875C49.5676 50.754 49.4768 50.3188 49.2683 49.937C49.0597 49.5553 48.7428 49.2441 48.3577 49.0429C47.9725 48.8418 47.5364 48.7597 47.1047 48.807C46.6729 48.8543 46.2649 49.029 45.9322 49.3088C45.4987 49.6927 45.2328 50.2317 45.1917 50.81C45.1507 51.3882 45.3378 51.9595 45.7128 52.401H45.6579Z" fill="#C8C7FF"/>
<path d="M46.1797 56.6206L45.4528 57.0054L43.6698 53.6522C43.403 53.1322 42.9417 52.7391 42.3866 52.5588C41.8315 52.3785 41.2277 52.4258 40.7073 52.6902L40.3232 51.9756C40.6738 51.7833 41.0591 51.6628 41.4565 51.621C41.854 51.5792 42.2558 51.6169 42.6386 51.732C43.0214 51.8471 43.3776 52.0372 43.6865 52.2913C43.9953 52.5455 44.2507 52.8586 44.4378 53.2124L46.1797 56.6206Z" fill="#C8C7FF"/>
<path d="M42.3666 58.5852L41.6122 58.8601L40.3367 55.2869C40.1491 54.7443 39.7571 54.2968 39.2445 54.04C38.7319 53.7831 38.1394 53.7375 37.5936 53.9127L37.3193 53.1431C38.067 52.878 38.8889 52.92 39.6058 53.2598C40.3226 53.5997 40.8763 54.2098 41.1459 54.9571L42.3666 58.5852Z" fill="#C8C7FF"/>
<path d="M34.672 54.6556C34.526 54.642 34.3791 54.642 34.2331 54.6556C33.712 54.7257 33.2341 54.9831 32.8884 55.3801C32.5427 55.7771 32.3528 56.2864 32.3541 56.8133L31.5449 56.9232C31.5488 56.1979 31.8164 55.4989 32.2975 54.957C32.7786 54.4151 33.4404 54.0675 34.1588 53.9792C34.8773 53.8909 35.6033 54.068 36.2008 54.4774C36.7984 54.8867 37.2266 55.5003 37.4052 56.2031C37.5839 56.906 37.5008 57.65 37.1715 58.2959C36.8422 58.9418 36.2893 59.4453 35.6162 59.7122C34.9431 59.9791 34.1961 59.991 33.5148 59.7458C32.8336 59.5006 32.2649 59.015 31.9152 58.38L34.672 54.6556ZM35.5087 54.8893L32.9165 58.325C33.1313 58.5704 33.398 58.7648 33.6971 58.8941C33.9963 59.0234 34.3204 59.0843 34.646 59.0724C34.9715 59.0605 35.2904 58.9762 35.5794 58.8255C35.8684 58.6747 36.1202 58.4614 36.3167 58.201C36.5132 57.9406 36.6493 57.6397 36.7152 57.32C36.7812 57.0003 36.7752 56.6699 36.6979 56.3528C36.6205 56.0357 36.4736 55.7398 36.2679 55.4867C36.0622 55.2335 35.8029 55.0295 35.5087 54.8893Z" fill="#C8C7FF"/>
<path d="M25.4826 54.765L25.6061 53.748L26.4153 53.8305L26.2918 54.8475C26.226 55.43 26.3921 56.0151 26.7542 56.4757C27.1163 56.9363 27.645 57.2352 28.2257 57.3074L29.9538 57.4998L30.3241 54.284L31.1334 54.3802L30.3653 61.1005L29.5561 61.0043L29.8715 58.2557L28.5823 58.187C28.1278 58.1576 27.6759 58.2753 27.2931 58.5228C26.9104 58.7702 26.6171 59.1342 26.4564 59.5613H25.6198C25.8339 58.8128 26.3242 58.174 26.9913 57.7747C26.4703 57.4795 26.0487 57.0358 25.78 56.4998C25.5114 55.9639 25.4078 55.36 25.4826 54.765Z" fill="#C8C7FF"/>
<path d="M23.0147 60.1115L22.2603 59.8091L23.193 57.4041L18.3789 55.5214L18.6806 54.7655L23.4947 56.6483L23.6319 56.2635C23.8535 55.7507 23.8708 55.1724 23.68 54.6473C23.4892 54.1222 23.1049 53.6904 22.6061 53.4405C22.1073 53.1906 21.5319 53.1417 20.9982 53.3038C20.4645 53.4659 20.0131 53.8267 19.7367 54.312L18.9824 54.0646C19.3207 53.3357 19.9341 52.7712 20.6877 52.4954C21.4414 52.2197 22.2735 52.2552 23.001 52.5941C23.7285 52.9331 24.2918 53.5478 24.567 54.3029C24.8422 55.0581 24.8068 55.8918 24.4685 56.6208L23.0147 60.1115Z" fill="#C8C7FF"/>
<path d="M16.4585 56.0842C16.5208 56.121 16.5753 56.1698 16.6187 56.2278C16.6621 56.2858 16.6936 56.3518 16.7115 56.422C16.7293 56.4923 16.7331 56.5654 16.7227 56.6371C16.7122 56.7089 16.6877 56.7778 16.6505 56.84C16.5738 56.9634 16.4525 57.0523 16.312 57.0881C16.1714 57.124 16.0224 57.104 15.8962 57.0324C15.7707 56.9577 15.68 56.8361 15.644 56.6943C15.608 56.5526 15.6296 56.4023 15.7042 56.2766C15.7788 56.1508 15.9001 56.0599 16.0416 56.0238C16.1831 55.9877 16.333 56.0094 16.4585 56.0842ZM16.4585 55.3008L18.9822 50.9443L19.6816 51.3704L17.1443 55.7131L16.4585 55.3008Z" fill="#C8C7FF"/>
<path d="M16.6643 51.8789C16.6643 51.8789 15.9511 53.2532 14.8539 55.5207L14.2092 54.9848L15.9511 51.4941C16.1346 51.2002 16.2165 50.8539 16.1843 50.5087C16.1521 50.1636 16.0075 49.8386 15.7728 49.5838C15.3613 49.2265 14.8264 49.0479 13.8801 49.7487C13.8801 49.7487 12.92 50.4359 10.7667 52.0713L10.1221 51.5353C11.9325 50.161 13.3726 49.1028 13.3726 49.1028C14.7441 48.0446 15.6768 48.4432 16.294 48.9654C16.6981 49.3233 16.9585 49.8162 17.0266 50.3523C17.0947 50.8883 16.966 51.4309 16.6643 51.8789Z" fill="#C8C7FF"/>
<path d="M10.3825 42.0391L10.8489 42.6987L10.1219 43.2072C10.8125 43.3114 11.4452 43.6535 11.9112 44.1745C12.3773 44.6955 12.6477 45.363 12.6758 46.0622C12.7039 46.7613 12.488 47.4484 12.0653 48.0053C11.6425 48.5623 11.0393 48.9542 10.3594 49.1137C9.6795 49.2733 8.96536 49.1904 8.33979 48.8795C7.71422 48.5686 7.21632 48.0489 6.93171 47.41C6.64709 46.771 6.59355 46.0527 6.78029 45.3785C6.96703 44.7042 7.38238 44.1163 7.95492 43.7157L10.3825 42.0391ZM8.42124 44.4441C8.06753 44.6901 7.79441 45.0355 7.63631 45.4368C7.47821 45.8381 7.4422 46.2773 7.53283 46.6991C7.62345 47.1208 7.83666 47.5063 8.14556 47.8068C8.45447 48.1074 8.84525 48.3096 9.26866 48.3879C9.69207 48.4663 10.1292 48.4173 10.5248 48.2471C10.9205 48.077 11.257 47.7932 11.492 47.4317C11.727 47.0702 11.8499 46.6471 11.8453 46.2157C11.8407 45.7843 11.7087 45.3639 11.466 45.0075C11.3038 44.7693 11.0961 44.5656 10.8549 44.4082C10.6137 44.2508 10.3438 44.1427 10.0608 44.0904C9.77771 44.038 9.48711 44.0423 9.20572 44.103C8.92432 44.1637 8.6577 44.2796 8.42124 44.4441Z" fill="#C8C7FF"/>
<path d="M30.7091 52.9925C42.2985 52.9925 51.6935 43.5786 51.6935 31.966C51.6935 20.3533 42.2985 10.9395 30.7091 10.9395C19.1197 10.9395 9.72461 20.3533 9.72461 31.966C9.72461 43.5786 19.1197 52.9925 30.7091 52.9925Z" fill="white"/>
<path d="M43.6012 24.5449H26.1553V41.3387H43.6012V24.5449Z" fill="#C8C7FF"/>
<path d="M26.1547 24.5449H18.3096V41.3387H26.1547V24.5449Z" fill="#4E0EA1"/>
<path d="M26.1547 24.5449L22.2322 20.2021L18.3096 24.5449" fill="#4E0EA1"/>
<path d="M43.6146 24.5449H26.0179L22.2324 20.2021H40.5287L43.6146 24.5449Z" fill="#7B63C6"/>
<path d="M32.7663 28.6533H28.8438V33.3809H32.7663V28.6533Z" fill="#4E0EA1"/>
<path d="M40.9949 28.6533H37.0723V33.3809H40.9949V28.6533Z" fill="#4E0EA1"/>
<path d="M37.073 35.7588H33.1504V41.3384H37.073V35.7588Z" fill="#4E0EA1"/>
</svg>
